<svg xmlns="http://www.w3.org/2000/svg" viewBox="0 0 133.63 133.63"><defs><style>.cls-1{fill:#e6e6e6;}.cls-2{fill:#e64c18;}.cls-3{fill:#f36518;}.cls-4{fill:#fff;}.cls-5{fill:#222123;}</style></defs><title>Asset 2</title><g id="Layer_2" data-name="Layer 2"><g id="Layer_1-2" data-name="Layer 1"><path class="cls-1" d="M133.63,66.81A66.82,66.82,0,1,1,66.81,0,66.69,66.69,0,0,1,133.63,66.81Z"/><path class="cls-2" d="M115.36,31.18l-7.63,88.46a66.82,66.82,0,0,1-81.53.23L18.56,31.18Z"/><polygon class="cls-3" points="66.96 39.48 66.96 131.58 98.78 122.6 105.87 39.48 66.96 39.48"/><polygon class="cls-4" points="36.77 51.03 39.9 87.98 81.37 87.98 80.01 103.24 66.96 106.78 53.36 102.97 53.02 93.45 40.36 93.45 41.94 112.21 66.96 119.28 91.97 112.21 95.07 75.5 51.4 75.5 50.31 63.54 50.31 63.54 96.1 63.3 97.14 51.03 36.77 51.03"/><polygon class="cls-5" points="39.45 4.38 39.45 10.73 33.39 10.73 33.39 4.38 27.74 4.38 27.74 22.58 33.39 22.58 33.39 16.66 39.45 16.66 39.45 22.58 45.09 22.58 45.09 4.38 39.45 4.38"/><polygon class="cls-5" points="65.12 4.38 47.77 4.38 47.77 10.73 53.42 10.73 53.42 22.72 59.48 22.72 59.48 10.73 65.12 10.73 65.12 4.38"/><polygon class="cls-5" points="97.42 16.94 97.42 4.53 91.36 4.53 91.36 16.94 91.36 22.72 97.42 22.72 106.17 22.72 106.17 16.94 97.42 16.94"/><polygon class="cls-5" points="82.19 4.53 77.96 11.01 73.73 4.53 67.66 4.53 67.66 22.72 73.73 22.72 73.73 13.69 77.96 20.18 82.19 13.69 82.19 22.72 88.26 22.72 88.26 4.53 82.19 4.53"/></g></g></svg>